# xmcd
#
# Track frame offsets:
#	150
#	16577
#	32937
#	48462
#	60777
#	75870
#	92910
#	111885
#	127900
#	145012
#	159597
#	170672
#	187985
#	201765
#	217410
#	235320
#
# Disc length: 3336
#
# Revision: 1
# Processed by: cddbd v1.5.1PL0 Copyright (c) Steve Scherf et al.
# Submitted via: CDex 1.50beta9
# Normalized: r0:TDELIM( - )
#
DISCID=d00d0610
DTITLE=Heart of the country - Vol 3
DYEAR=1900
DGENRE=Country
TTITLE0=Highway 101 - do you love me just say yes
TTITLE1=Reba Mcentire - love will find its way to you
TTITLE2=Skip Ewing - I don't have far to fall
TTITLE3=Holly Dunn - that's what your love does to me
TTITLE4=Glen Campbell - I have you
TTITLE5=Family Brown - til I find my love
TTITLE6=Desert Rose Band - I still believe in you
TTITLE7=Earle Thomas Conley - we believe in happy endings
TTITLE8=Michael Martin Murphey - i'm gonna miss you girl
TTITLE9=Foster Lloyd - what do you want from me this time
TTITLE10=Patty Loveless - little bit in love
TTITLE11=Eddy Raven - til you cry
TTITLE12=O'kanes - blue love
TTITLE13=Steve Wariner - I should be with you
TTITLE14=Michelle Wright - do right by me
TTITLE15=Rodney Crowell and rosanne Cash - its such a small world
EXTD=
EXTT0=
EXTT1=
EXTT2=
EXTT3=
EXTT4=
EXTT5=
EXTT6=
EXTT7=
EXTT8=
EXTT9=
EXTT10=
EXTT11=
EXTT12=
EXTT13=
EXTT14=
EXTT15=
PLAYORDER=
